<svg xmlns="http://www.w3.org/2000/svg" xmlns:xlink="http://www.w3.org/1999/xlink" width="500" zoomAndPan="magnify" viewBox="0 0 375 374.999991" height="500" preserveAspectRatio="xMidYMid meet" version="1.0"><defs><clipPath id="e16a2abbbc"><path d="M 33.210938 33.210938 L 341.460938 33.210938 L 341.460938 341.460938 L 33.210938 341.460938 Z M 33.210938 33.210938 " clip-rule="nonzero"/></clipPath><clipPath id="30616b7c54"><path d="M 110.449219 97 L 121.699219 97 L 121.699219 269 L 110.449219 269 Z M 110.449219 97 " clip-rule="nonzero"/></clipPath><clipPath id="a8e3a66a54"><path d="M 111 258.917969 L 283 258.917969 L 283 270.167969 L 111 270.167969 Z M 111 258.917969 " clip-rule="nonzero"/></clipPath><clipPath id="b3442cab09"><path d="M 137 111.242188 L 257 111.242188 L 257 119.492188 L 137 119.492188 Z M 137 111.242188 " clip-rule="nonzero"/></clipPath><clipPath id="5114224746"><path d="M 139 111 L 255 111 L 255 227 L 139 227 Z M 139 111 " clip-rule="nonzero"/></clipPath><clipPath id="80a8e160e0"><path d="M 136.433594 222.542969 L 250.457031 108.523438 L 257.878906 115.949219 L 143.859375 229.96875 Z M 136.433594 222.542969 " clip-rule="nonzero"/></clipPath><clipPath id="554f290d4f"><path d="M 136.433594 222.542969 L 250.457031 108.523438 L 257.878906 115.949219 L 143.859375 229.96875 Z M 136.433594 222.542969 " clip-rule="nonzero"/></clipPath><clipPath id="759f59f4a4"><path d="M 137 218.613281 L 257 218.613281 L 257 226.863281 L 137 226.863281 Z M 137 218.613281 " clip-rule="nonzero"/></clipPath></defs><g clip-path="url(#e16a2abbbc)"><path fill="#ffffff" d="M 187.335938 341.460938 C 102.183594 341.460938 33.210938 272.007812 33.210938 187.335938 C 33.210938 102.660156 102.183594 33.210938 187.335938 33.210938 C 272.484375 33.210938 341.460938 102.183594 341.460938 187.335938 C 341.460938 272.484375 272.007812 341.460938 187.335938 341.460938 Z M 187.335938 42.722656 C 107.417969 42.722656 42.722656 107.417969 42.722656 187.335938 C 42.722656 267.25 107.417969 331.945312 187.335938 331.945312 C 267.25 331.945312 331.945312 267.25 331.945312 187.335938 C 331.945312 107.417969 266.773438 42.722656 187.335938 42.722656 Z M 187.335938 42.722656 " fill-opacity="1" fill-rule="nonzero"/></g><g clip-path="url(#30616b7c54)"><path fill="#ffffff" d="M 121.699219 262.925781 L 121.699219 103.558594 C 121.699219 100.414062 119.179688 97.867188 116.074219 97.867188 C 112.96875 97.867188 110.449219 100.414062 110.449219 103.558594 L 110.449219 262.925781 C 110.449219 266.070312 112.96875 268.617188 116.074219 268.617188 C 119.179688 268.617188 121.699219 266.070312 121.699219 262.925781 Z M 121.699219 262.925781 " fill-opacity="1" fill-rule="nonzero"/></g><g clip-path="url(#a8e3a66a54)"><path fill="#ffffff" d="M 117.5625 270.167969 L 276.929688 270.167969 C 280.074219 270.167969 282.625 267.648438 282.625 264.542969 C 282.625 261.4375 280.074219 258.917969 276.929688 258.917969 L 117.5625 258.917969 C 114.417969 258.917969 111.871094 261.4375 111.871094 264.542969 C 111.871094 267.648438 114.417969 270.167969 117.5625 270.167969 Z M 117.5625 270.167969 " fill-opacity="1" fill-rule="nonzero"/></g><g clip-path="url(#b3442cab09)"><path fill="#ffffff" d="M 252.492188 111.242188 L 141.898438 111.242188 C 139.71875 111.242188 137.949219 113.085938 137.949219 115.367188 C 137.949219 117.644531 139.71875 119.492188 141.898438 119.492188 L 252.492188 119.492188 C 254.671875 119.492188 256.441406 117.644531 256.441406 115.367188 C 256.441406 113.085938 254.671875 111.242188 252.492188 111.242188 Z M 252.492188 111.242188 " fill-opacity="1" fill-rule="nonzero"/></g><g clip-path="url(#5114224746)"><g clip-path="url(#80a8e160e0)"><g clip-path="url(#554f290d4f)"><path fill="#ffffff" d="M 245.675781 113.304688 L 141.214844 217.761719 C 139.15625 219.824219 139.148438 223.15625 141.199219 225.207031 C 143.246094 227.253906 146.578125 227.246094 148.640625 225.1875 L 253.097656 120.730469 C 255.160156 118.667969 255.167969 115.335938 253.117188 113.285156 C 251.066406 111.234375 247.734375 111.242188 245.675781 113.304688 Z M 245.675781 113.304688 " fill-opacity="1" fill-rule="nonzero"/></g></g></g><g clip-path="url(#759f59f4a4)"><path fill="#ffffff" d="M 252.492188 218.613281 L 141.898438 218.613281 C 139.71875 218.613281 137.949219 220.457031 137.949219 222.738281 C 137.949219 225.015625 139.71875 226.863281 141.898438 226.863281 L 252.492188 226.863281 C 254.671875 226.863281 256.441406 225.015625 256.441406 222.738281 C 256.441406 220.457031 254.671875 218.613281 252.492188 218.613281 Z M 252.492188 218.613281 " fill-opacity="1" fill-rule="nonzero"/></g></svg>